<svg id="visual" viewBox="0 0 960 540" width="960" height="540" xmlns="http://www.w3.org/2000/svg" xmlns:xlink="http://www.w3.org/1999/xlink" version="1.1"><path d="M0 392L10.7 387.3C21.3 382.7 42.7 373.3 64 371.3C85.3 369.3 106.7 374.7 128 375.8C149.3 377 170.7 374 192 370.8C213.3 367.7 234.7 364.3 256 366C277.3 367.7 298.7 374.3 320 377.5C341.3 380.7 362.7 380.3 384 384.3C405.3 388.3 426.7 396.7 448 393C469.3 389.3 490.7 373.7 512 366.2C533.3 358.7 554.7 359.3 576 358.7C597.3 358 618.7 356 640 360.2C661.3 364.3 682.7 374.7 704 374.8C725.3 375 746.7 365 768 360C789.3 355 810.7 355 832 363.8C853.3 372.7 874.7 390.3 896 397.2C917.3 404 938.7 400 949.3 398L960 396L960 541L949.3 541C938.7 541 917.3 541 896 541C874.7 541 853.3 541 832 541C810.7 541 789.3 541 768 541C746.7 541 725.3 541 704 541C682.7 541 661.3 541 640 541C618.7 541 597.3 541 576 541C554.7 541 533.3 541 512 541C490.7 541 469.3 541 448 541C426.7 541 405.3 541 384 541C362.7 541 341.3 541 320 541C298.7 541 277.3 541 256 541C234.7 541 213.3 541 192 541C170.7 541 149.3 541 128 541C106.7 541 85.3 541 64 541C42.7 541 21.3 541 10.7 541L0 541Z" fill="#c62368"></path><path d="M0 412L10.7 410C21.3 408 42.7 404 64 404C85.3 404 106.7 408 128 409.7C149.3 411.3 170.7 410.7 192 409.3C213.3 408 234.7 406 256 404.7C277.3 403.3 298.7 402.7 320 406.8C341.3 411 362.7 420 384 420.2C405.3 420.3 426.7 411.7 448 407.5C469.3 403.3 490.7 403.7 512 398.2C533.3 392.7 554.7 381.3 576 377.5C597.3 373.7 618.7 377.3 640 384.5C661.3 391.7 682.7 402.3 704 404.5C725.3 406.7 746.7 400.3 768 400.2C789.3 400 810.7 406 832 403.3C853.3 400.7 874.7 389.3 896 389.7C917.3 390 938.7 402 949.3 408L960 414L960 541L949.3 541C938.7 541 917.3 541 896 541C874.7 541 853.3 541 832 541C810.7 541 789.3 541 768 541C746.7 541 725.3 541 704 541C682.7 541 661.3 541 640 541C618.7 541 597.3 541 576 541C554.7 541 533.3 541 512 541C490.7 541 469.3 541 448 541C426.7 541 405.3 541 384 541C362.7 541 341.3 541 320 541C298.7 541 277.3 541 256 541C234.7 541 213.3 541 192 541C170.7 541 149.3 541 128 541C106.7 541 85.3 541 64 541C42.7 541 21.3 541 10.7 541L0 541Z" fill="#cf3068"></path><path d="M0 404L10.7 403C21.3 402 42.7 400 64 405.3C85.3 410.7 106.7 423.3 128 427.5C149.3 431.7 170.7 427.3 192 420.2C213.3 413 234.7 403 256 401C277.3 399 298.7 405 320 413.7C341.3 422.3 362.7 433.7 384 430.3C405.3 427 426.7 409 448 406.8C469.3 404.7 490.7 418.3 512 424.8C533.3 431.3 554.7 430.7 576 431.2C597.3 431.7 618.7 433.3 640 430.5C661.3 427.7 682.7 420.3 704 414.8C725.3 409.3 746.7 405.7 768 407.5C789.3 409.3 810.7 416.7 832 423.7C853.3 430.7 874.7 437.3 896 439.5C917.3 441.7 938.7 439.3 949.3 438.2L960 437L960 541L949.3 541C938.7 541 917.3 541 896 541C874.7 541 853.3 541 832 541C810.7 541 789.3 541 768 541C746.7 541 725.3 541 704 541C682.7 541 661.3 541 640 541C618.7 541 597.3 541 576 541C554.7 541 533.3 541 512 541C490.7 541 469.3 541 448 541C426.7 541 405.3 541 384 541C362.7 541 341.3 541 320 541C298.7 541 277.3 541 256 541C234.7 541 213.3 541 192 541C170.7 541 149.3 541 128 541C106.7 541 85.3 541 64 541C42.7 541 21.3 541 10.7 541L0 541Z" fill="#d73b67"></path><path d="M0 430L10.7 431C21.3 432 42.7 434 64 436.7C85.3 439.3 106.7 442.7 128 441.3C149.3 440 170.7 434 192 432.5C213.3 431 234.7 434 256 433C277.3 432 298.7 427 320 425.8C341.3 424.7 362.7 427.3 384 429C405.3 430.7 426.7 431.3 448 431.2C469.3 431 490.7 430 512 431.3C533.3 432.7 554.7 436.3 576 437.8C597.3 439.3 618.7 438.7 640 436.2C661.3 433.7 682.7 429.3 704 431.2C725.3 433 746.7 441 768 445.7C789.3 450.3 810.7 451.7 832 451.8C853.3 452 874.7 451 896 452C917.3 453 938.7 456 949.3 457.5L960 459L960 541L949.3 541C938.7 541 917.3 541 896 541C874.7 541 853.3 541 832 541C810.7 541 789.3 541 768 541C746.7 541 725.3 541 704 541C682.7 541 661.3 541 640 541C618.7 541 597.3 541 576 541C554.7 541 533.3 541 512 541C490.7 541 469.3 541 448 541C426.7 541 405.3 541 384 541C362.7 541 341.3 541 320 541C298.7 541 277.3 541 256 541C234.7 541 213.3 541 192 541C170.7 541 149.3 541 128 541C106.7 541 85.3 541 64 541C42.7 541 21.3 541 10.7 541L0 541Z" fill="#df4667"></path><path d="M0 447L10.7 446.7C21.3 446.3 42.7 445.7 64 448.3C85.3 451 106.7 457 128 456.8C149.3 456.7 170.7 450.3 192 447.3C213.3 444.3 234.7 444.7 256 448.5C277.3 452.3 298.7 459.7 320 462.3C341.3 465 362.7 463 384 463.7C405.3 464.3 426.7 467.7 448 470.3C469.3 473 490.7 475 512 470.3C533.3 465.7 554.7 454.3 576 453.2C597.3 452 618.7 461 640 460.5C661.3 460 682.7 450 704 449C725.3 448 746.7 456 768 458.3C789.3 460.7 810.7 457.3 832 459.2C853.3 461 874.7 468 896 469C917.3 470 938.7 465 949.3 462.5L960 460L960 541L949.3 541C938.7 541 917.3 541 896 541C874.7 541 853.3 541 832 541C810.7 541 789.3 541 768 541C746.7 541 725.3 541 704 541C682.7 541 661.3 541 640 541C618.7 541 597.3 541 576 541C554.7 541 533.3 541 512 541C490.7 541 469.3 541 448 541C426.7 541 405.3 541 384 541C362.7 541 341.3 541 320 541C298.7 541 277.3 541 256 541C234.7 541 213.3 541 192 541C170.7 541 149.3 541 128 541C106.7 541 85.3 541 64 541C42.7 541 21.3 541 10.7 541L0 541Z" fill="#e75167"></path><path d="M0 463L10.7 462.8C21.3 462.7 42.7 462.3 64 461.7C85.3 461 106.7 460 128 461.2C149.3 462.3 170.7 465.7 192 469.8C213.3 474 234.7 479 256 478.2C277.3 477.3 298.7 470.7 320 471.2C341.3 471.7 362.7 479.3 384 483.7C405.3 488 426.7 489 448 490C469.3 491 490.7 492 512 491.7C533.3 491.3 554.7 489.7 576 487.8C597.3 486 618.7 484 640 484.7C661.3 485.3 682.7 488.7 704 485.5C725.3 482.3 746.7 472.7 768 472.3C789.3 472 810.7 481 832 482.2C853.3 483.3 874.7 476.7 896 473.7C917.3 470.7 938.7 471.3 949.3 471.7L960 472L960 541L949.3 541C938.7 541 917.3 541 896 541C874.7 541 853.3 541 832 541C810.7 541 789.3 541 768 541C746.7 541 725.3 541 704 541C682.7 541 661.3 541 640 541C618.7 541 597.3 541 576 541C554.7 541 533.3 541 512 541C490.7 541 469.3 541 448 541C426.7 541 405.3 541 384 541C362.7 541 341.3 541 320 541C298.7 541 277.3 541 256 541C234.7 541 213.3 541 192 541C170.7 541 149.3 541 128 541C106.7 541 85.3 541 64 541C42.7 541 21.3 541 10.7 541L0 541Z" fill="#ee5c67"></path><path d="M0 485L10.7 486.3C21.3 487.7 42.7 490.3 64 492C85.3 493.7 106.7 494.3 128 494.3C149.3 494.3 170.7 493.7 192 495.2C213.3 496.7 234.7 500.3 256 503.7C277.3 507 298.7 510 320 507.3C341.3 504.7 362.7 496.3 384 491.8C405.3 487.3 426.7 486.7 448 487C469.3 487.3 490.7 488.7 512 491.7C533.3 494.7 554.7 499.3 576 497.5C597.3 495.7 618.7 487.3 640 487.8C661.3 488.3 682.7 497.7 704 498C725.3 498.3 746.7 489.7 768 489.8C789.3 490 810.7 499 832 503.8C853.3 508.7 874.7 509.3 896 505.3C917.3 501.3 938.7 492.7 949.3 488.3L960 484L960 541L949.3 541C938.7 541 917.3 541 896 541C874.7 541 853.3 541 832 541C810.7 541 789.3 541 768 541C746.7 541 725.3 541 704 541C682.7 541 661.3 541 640 541C618.7 541 597.3 541 576 541C554.7 541 533.3 541 512 541C490.7 541 469.3 541 448 541C426.7 541 405.3 541 384 541C362.7 541 341.3 541 320 541C298.7 541 277.3 541 256 541C234.7 541 213.3 541 192 541C170.7 541 149.3 541 128 541C106.7 541 85.3 541 64 541C42.7 541 21.3 541 10.7 541L0 541Z" fill="#f46767"></path><path d="M0 509L10.7 508.3C21.3 507.7 42.7 506.3 64 506.3C85.3 506.3 106.7 507.7 128 509.7C149.3 511.7 170.7 514.3 192 514.2C213.3 514 234.7 511 256 511.5C277.3 512 298.7 516 320 519.5C341.3 523 362.7 526 384 523C405.3 520 426.7 511 448 508.8C469.3 506.7 490.7 511.3 512 514.2C533.3 517 554.7 518 576 517.2C597.3 516.3 618.7 513.7 640 514.8C661.3 516 682.7 521 704 520.7C725.3 520.3 746.7 514.7 768 513.3C789.3 512 810.7 515 832 518C853.3 521 874.7 524 896 521.2C917.3 518.3 938.7 509.7 949.3 505.3L960 501L960 541L949.3 541C938.7 541 917.3 541 896 541C874.7 541 853.3 541 832 541C810.7 541 789.3 541 768 541C746.7 541 725.3 541 704 541C682.7 541 661.3 541 640 541C618.7 541 597.3 541 576 541C554.7 541 533.3 541 512 541C490.7 541 469.3 541 448 541C426.7 541 405.3 541 384 541C362.7 541 341.3 541 320 541C298.7 541 277.3 541 256 541C234.7 541 213.3 541 192 541C170.7 541 149.3 541 128 541C106.7 541 85.3 541 64 541C42.7 541 21.3 541 10.7 541L0 541Z" fill="#fa7268"></path></svg>